<?xml version="1.0" encoding="utf-8"?>
<!-- Generator: Adobe Illustrator 19.0.0, SVG Export Plug-In . SVG Version: 6.00 Build 0)  -->
<svg version="1.1" id="Layer_1" xmlns="http://www.w3.org/2000/svg" xmlns:xlink="http://www.w3.org/1999/xlink" x="0px" y="0px"
	 viewBox="0 0 363.3 91.3" style="enable-background:new 0 0 363.3 91.3;" xml:space="preserve">
<style type="text/css">
	.st0{fill:#FFFFFF;}
</style>
<g id="XMLID_49_">
	<path id="XMLID_50_" class="st0" d="M3,49.8H0.1V0H3V49.8z"/>
	<path id="XMLID_52_" class="st0" d="M44,49.8h-2.7V29.2c0-5-0.9-8.5-2.7-10.6c-1.8-2.1-4.4-3.1-7.9-3.1c-3.4,0-6.6,1.4-9.5,4.1
		c-2.9,2.7-4.4,5.8-4.4,9.4v20.8H14V13.9h2.5v8.7c1.2-2.8,3.2-5.1,6-7c2.8-1.8,5.7-2.7,8.7-2.7c8.6,0,12.9,5.3,12.9,15.9V49.8z"/>
	<path id="XMLID_54_" class="st0" d="M69.8,16.4h-8v33.4h-2.7V16.4h-8v-2.4h8V4.1h2.7v9.8h8V16.4z"/>
	<path id="XMLID_56_" class="st0" d="M91.1,12.9c4,0,7.4,1.3,10.2,3.8c2.8,2.5,4.2,5.8,4.2,9.6c0,1.2-0.1,2.2-0.2,3.2H77.7
		c-0.4,5.4,0.8,9.8,3.4,13.4c2.7,3.6,6.9,5.4,12.7,5.4c4.2,0,8-1.4,11.5-4.1v2.5c-3.3,2.7-7.6,4.1-12.9,4.1c-5.1,0-9.3-1.8-12.6-5.3
		c-3.2-3.5-4.9-8.2-4.9-13.9c0-5.6,1.7-10.2,5-13.6C83.1,14.6,86.9,12.9,91.1,12.9z M102.8,25.6c0-2.9-1.1-5.4-3.2-7.4
		c-2.2-2-4.9-3-8.2-3c-3.2,0-6,1-8.5,3c-2.5,2-4.2,5.1-4.9,9.1h24.8C102.8,26.5,102.8,26,102.8,25.6z"/>
	<path id="XMLID_59_" class="st0" d="M130.7,16c-3.4-0.2-6.5,0.9-9.3,3.4c-2.8,2.5-4.2,5.4-4.2,8.8v21.6h-2.7V13.9h2.5l0.1,8.1
		c1.2-2.8,3.1-4.9,5.7-6.5c2.6-1.6,5.2-2.4,7.9-2.5V16z"/>
	<path id="XMLID_61_" class="st0" d="M183.2,36.1c0,4-1.2,7.3-3.7,9.8c-2.5,2.6-6.2,3.9-11.1,3.9h-15.1V0h13.8
		c4.5,0,7.9,1.1,10.2,3.4c2.2,2.3,3.4,5.3,3.4,8.9c0,2.5-0.6,4.9-1.9,7c-1.3,2.1-3.2,3.5-5.8,4.1c3.5,0.6,6.1,2,7.8,4.4
		C182.4,30.3,183.2,33,183.2,36.1z M177.8,12.4c0-2.9-0.8-5.2-2.5-7.1c-1.7-1.8-4.4-2.7-8.2-2.7h-11v19.8h11c3.8,0,6.6-0.9,8.2-2.8
		C177,17.7,177.8,15.3,177.8,12.4z M156.2,25v22.2h12.3c4.2,0,7.2-1,9.1-3.2c1.9-2.1,2.8-4.8,2.8-8c0-3.2-0.9-5.9-2.8-8
		c-1.9-2.1-4.9-3.2-9.1-3.2H156.2z"/>
	<path id="XMLID_65_" class="st0" d="M205.4,12.9c4,0,7.4,1.3,10.2,3.8c2.8,2.5,4.2,5.8,4.2,9.6c0,1.2-0.1,2.2-0.2,3.2h-27.6
		c-0.4,5.4,0.8,9.8,3.4,13.4c2.7,3.6,6.9,5.4,12.7,5.4c4.2,0,8-1.4,11.5-4.1v2.5c-3.3,2.7-7.6,4.1-12.9,4.1c-5.1,0-9.3-1.8-12.6-5.3
		c-3.2-3.5-4.9-8.2-4.9-13.9c0-5.6,1.7-10.2,5-13.6C197.4,14.6,201.2,12.9,205.4,12.9z M217.1,25.6c0-2.9-1.1-5.4-3.2-7.4
		c-2.2-2-4.9-3-8.2-3c-3.2,0-6,1-8.5,3c-2.5,2-4.2,5.1-4.9,9.1H217C217.1,26.5,217.1,26,217.1,25.6z"/>
	<path id="XMLID_68_" class="st0" d="M262.1,49.8h-2.5l-0.1-9.1c-1.2,3.2-3.2,5.6-6.1,7.4c-2.8,1.8-5.9,2.7-9.3,2.7
		c-5,0-9.1-1.8-12.5-5.3c-3.3-3.5-5-8.1-5-13.6s1.7-10.1,5-13.6c3.3-3.5,7.5-5.3,12.5-5.3c3.4,0,6.5,0.9,9.3,2.7
		c2.8,1.8,4.8,4.3,6.1,7.4l0.1-9.1h2.5V49.8z M255.2,43.8c2.9-3,4.3-7,4.3-12c0-5-1.5-9-4.4-12c-2.9-3-6.5-4.5-10.7-4.5
		c-4.3,0-7.8,1.5-10.7,4.5c-2.9,3-4.3,7-4.3,12c0,5,1.4,9,4.3,12c2.8,3,6.4,4.5,10.7,4.5C248.7,48.3,252.3,46.8,255.2,43.8z"/>
	<path id="XMLID_71_" class="st0" d="M272.8,13.9h2.7v20.6c0,5,0.9,8.5,2.7,10.6c1.8,2.1,4.4,3.1,7.9,3.1c3.4,0,6.6-1.4,9.5-4.1
		c2.9-2.7,4.4-5.8,4.4-9.4V13.9h2.7v35.9h-2.5v-8.7c-1.2,2.8-3.2,5.1-6,7c-2.8,1.8-5.7,2.7-8.7,2.7c-8.6,0-12.9-5.3-12.9-15.9V13.9z
		"/>
	<path id="XMLID_73_" class="st0" d="M328.7,16.4h-8v33.4H318V16.4h-8v-2.4h8V4.1h2.7v9.8h8V16.4z"/>
	<path id="XMLID_75_" class="st0" d="M363.2,13.9l-21.2,52h-2.7l6.8-16.6l-14.3-35.4h2.9l12.8,32l13.1-32H363.2z"/>
</g>
<g id="XMLID_9_">
	<g id="XMLID_33_">
		<path id="XMLID_34_" class="st0" d="M78.1,91.3l-7.4-17.3H73l5.9,13.8l5.9-13.8H87l-7.4,17.3H78.1z"/>
		<path id="XMLID_36_" class="st0" d="M108.3,91.3V73.9h2.3v17.3H108.3z"/>
		<path id="XMLID_38_" class="st0" d="M133.6,91.3V73.9h10.5v1.9h-8.2v5.3h6.7v1.9h-6.7v6.2h8.2v1.9H133.6z"/>
		<path id="XMLID_40_" class="st0" d="M171,91.3V75.9h-6.1v-1.9h14.6v1.9h-6.1v15.4H171z"/>
		<path id="XMLID_42_" class="st0" d="M200.9,91.3V73.9h1.3l10.4,13v-13h2.1v17.3h-1.3L203,78.4v12.9H200.9z"/>
		<path id="XMLID_44_" class="st0" d="M235.9,91.3l7.4-17.3h1.5l7.4,17.3h-2.4l-2.1-4.8h-7.7l-2.1,4.8H235.9z M241,84.5h6.1l-3-7.2
			L241,84.5z"/>
		<path id="XMLID_47_" class="st0" d="M273.6,91.3V73.9h2.3l6.7,14.4l6.7-14.4h2.1v17.3h-2.2V79.5c0-0.1,0-0.3,0-0.5
			c0-0.2,0-0.4,0-0.6V78c0,0,0,0.1-0.1,0.3c0,0.2-0.1,0.4-0.2,0.6c-0.1,0.2-0.2,0.4-0.2,0.5l-5.4,11.8h-1.6l-5.4-11.8
			c-0.3-0.6-0.5-1.1-0.6-1.4v0.3c0,0.2,0,0.4,0,0.6s0,0.4,0,0.5v11.8H273.6z"/>
	</g>
	<g id="XMLID_3_">
		<rect id="XMLID_7_" x="0" y="81.4" class="st0" width="57" height="1.3"/>
		<rect id="XMLID_8_" x="306.3" y="82" class="st0" width="57" height="1.3"/>
	</g>
</g>
</svg>
